# xmcd
# Track frame offsets:
# 183
# 21050
# 47025
# 65198
# 81800
# 102295
# 114660
# 133240
#
# Disc length: 2014 seconds
# Revision: 0
# Processed by: cddbd v1.4PL0 Copyright (c) Steve Scherf et al.
# Submitted via: VisiTrax 2.9.3.171 - For more info visit www.synapsa.com
#
DISCID=6e07dc08
DTITLE=Paul Williams and Friends - In Memory of Robert Johnson
DYEAR=1973
DGENRE=Blues
TTITLE0=Terraplane Blues (Ver. 1)
TTITLE1=Crossroad Blues
TTITLE2=Kind Hearted Woman Blues
TTITLE3=If I Had Possession Over Judgement Day
TTITLE4=Rambling Blues
TTITLE5=When You Got a Good Friend
TTITLE6=Come On in My Kitchen
TTITLE7=Terraplane Blues (Ver. 2)
EXTD=
EXTT0=
EXTT1=
EXTT2=
EXTT3=
EXTT4=
EXTT5=
EXTT6=
EXTT7=
PLAYORDER=
